<svg xmlns="http://www.w3.org/2000/svg" width="50" height="50" viewBox="0 0 50 50">
    <path d="M 38 2 C 37.74425 2 37.47675 2.08575 37.28125 2.28125 L 25 14.59375 L 17.71875 7.28125 C 17.32775 6.89025 16.67225 6.89025 16.28125 7.28125 C 15.89025 7.67225 15.89025 8.32775 16.28125 8.71875 L 22.5625 15 L 6 15 C 2.691 15 0 17.691 0 21 L 0 44 C 0 47.309 2.691 50 6 50 L 44 50 C 47.309 50 50 47.309 50 44 L 50 21 C 50 17.691 47.309 15 44 15 L 27.4375 15 L 38.71875 3.71875 C 39.10975 3.32775 39.10975 2.67225 38.71875 2.28125 C 38.52325 2.08575 38.25575 2 38 2 z M 20.5 19 C 34.953 19 37 19.041 37 32.5 C 37 45.962 34.811 46 20.5 46 C 6.123 46 4 45.857 4 32.5 C 4 19.147 6.123 19 20.5 19 z M 43 26 C 44.104 26 45 26.896 45 28 C 45 29.104 44.104 30 43 30 C 41.896 30 41 29.104 41 28 C 41 26.896 41.896 26 43 26 z M 43 35 C 44.104 35 45 35.896 45 37 C 45 38.104 44.104 39 43 39 C 41.896 39 41 38.104 41 37 C 41 35.896 41.896 35 43 35 z" fill="#0070b8"></path>
</svg>